<mxfile host="drawio-plugin" modified="2021-12-15T09:55:52.991Z" agent="5.0 (Windows NT 6.2; Win64; x64) AppleWebKit/537.36 (KHTML, like Gecko) Chrome/89.0.4389.114 Safari/537.36" etag="iOFLp7r8JR9qt1KcbIoM" version="14.7.4" type="embed"><diagram id="NBrzhUNwR4jSzfW6Z2oR" name="Page-1"><mxGraphModel dx="1149" dy="468" grid="1" gridSize="10" guides="1" tooltips="1" connect="1" arrows="1" fold="1" page="1" pageScale="1" pageWidth="850" pageHeight="1100" math="0" shadow="0"><root><mxCell id="0"/><mxCell id="1" parent="0"/><mxCell id="8wCtR02nhq7q4BEQFOrc-33" value="" style="edgeStyle=orthogonalEdgeStyle;rounded=0;orthogonalLoop=1;jettySize=auto;html=1;strokeColor=none;startArrow=classic;startFill=1;" parent="1" source="8wCtR02nhq7q4BEQFOrc-1" target="8wCtR02nhq7q4BEQFOrc-13" edge="1"><mxGeometry relative="1" as="geometry"/></mxCell><mxCell id="8wCtR02nhq7q4BEQFOrc-1" value="" style="whiteSpace=wrap;html=1;aspect=fixed;fillColor=none;" parent="1" vertex="1"><mxGeometry x="40" y="80" width="360" height="360" as="geometry"/></mxCell><mxCell id="8wCtR02nhq7q4BEQFOrc-2" style="edgeStyle=orthogonalEdgeStyle;rounded=0;orthogonalLoop=1;jettySize=auto;html=1;exitX=0.5;exitY=1;exitDx=0;exitDy=0;" parent="1" source="8wCtR02nhq7q4BEQFOrc-1" target="8wCtR02nhq7q4BEQFOrc-1" edge="1"><mxGeometry relative="1" as="geometry"/></mxCell><mxCell id="8wCtR02nhq7q4BEQFOrc-3" value="Sign In Page" style="text;html=1;align=center;verticalAlign=middle;resizable=0;points=[];autosize=1;strokeColor=none;fillColor=none;" parent="1" vertex="1"><mxGeometry x="185" y="50" width="80" height="20" as="geometry"/></mxCell><mxCell id="8wCtR02nhq7q4BEQFOrc-4" value="" style="rounded=0;whiteSpace=wrap;html=1;fillColor=none;" parent="1" vertex="1"><mxGeometry x="140" y="170" width="160" height="180" as="geometry"/></mxCell><mxCell id="8wCtR02nhq7q4BEQFOrc-5" value="InstaClone" style="rounded=0;whiteSpace=wrap;html=1;fillColor=none;" parent="1" vertex="1"><mxGeometry x="160" y="110" width="120" height="30" as="geometry"/></mxCell><mxCell id="8wCtR02nhq7q4BEQFOrc-7" value="email" style="rounded=0;whiteSpace=wrap;html=1;fillColor=none;" parent="1" vertex="1"><mxGeometry x="160" y="200" width="120" height="30" as="geometry"/></mxCell><mxCell id="8wCtR02nhq7q4BEQFOrc-8" value="password" style="rounded=0;whiteSpace=wrap;html=1;fillColor=none;" parent="1" vertex="1"><mxGeometry x="160" y="245" width="120" height="30" as="geometry"/></mxCell><mxCell id="8wCtR02nhq7q4BEQFOrc-10" value="sign in" style="rounded=1;whiteSpace=wrap;html=1;fillColor=none;" parent="1" vertex="1"><mxGeometry x="160" y="300" width="120" height="20" as="geometry"/></mxCell><mxCell id="8wCtR02nhq7q4BEQFOrc-12" value="Don't have an account? &lt;br&gt;Sign Up" style="rounded=0;whiteSpace=wrap;html=1;fillColor=none;" parent="1" vertex="1"><mxGeometry x="140" y="380" width="160" height="40" as="geometry"/></mxCell><mxCell id="8wCtR02nhq7q4BEQFOrc-13" value="" style="whiteSpace=wrap;html=1;aspect=fixed;fillColor=none;" parent="1" vertex="1"><mxGeometry x="480" y="80" width="481" height="481" as="geometry"/></mxCell><mxCell id="8wCtR02nhq7q4BEQFOrc-14" style="edgeStyle=orthogonalEdgeStyle;rounded=0;orthogonalLoop=1;jettySize=auto;html=1;exitX=0.5;exitY=1;exitDx=0;exitDy=0;" parent="1" source="8wCtR02nhq7q4BEQFOrc-13" target="8wCtR02nhq7q4BEQFOrc-13" edge="1"><mxGeometry relative="1" as="geometry"/></mxCell><mxCell id="8wCtR02nhq7q4BEQFOrc-15" value="Sign Up Page" style="text;html=1;align=center;verticalAlign=middle;resizable=0;points=[];autosize=1;strokeColor=none;fillColor=none;" parent="1" vertex="1"><mxGeometry x="675" y="50" width="90" height="20" as="geometry"/></mxCell><mxCell id="8wCtR02nhq7q4BEQFOrc-16" value="" style="rounded=0;whiteSpace=wrap;html=1;fillColor=none;" parent="1" vertex="1"><mxGeometry x="640" y="180" width="160" height="260" as="geometry"/></mxCell><mxCell id="8wCtR02nhq7q4BEQFOrc-17" value="InstaClone" style="rounded=0;whiteSpace=wrap;html=1;fillColor=none;" parent="1" vertex="1"><mxGeometry x="660" y="120" width="120" height="30" as="geometry"/></mxCell><mxCell id="8wCtR02nhq7q4BEQFOrc-18" value="email" style="rounded=0;whiteSpace=wrap;html=1;fillColor=none;" parent="1" vertex="1"><mxGeometry x="660" y="200" width="120" height="30" as="geometry"/></mxCell><mxCell id="8wCtR02nhq7q4BEQFOrc-19" value="password" style="rounded=0;whiteSpace=wrap;html=1;fillColor=none;" parent="1" vertex="1"><mxGeometry x="660" y="300.5" width="120" height="30" as="geometry"/></mxCell><mxCell id="8wCtR02nhq7q4BEQFOrc-20" value="sign up" style="rounded=1;whiteSpace=wrap;html=1;fillColor=none;" parent="1" vertex="1"><mxGeometry x="660" y="400" width="120" height="20" as="geometry"/></mxCell><mxCell id="8wCtR02nhq7q4BEQFOrc-21" value="Have an account? &lt;br&gt;Sign In" style="rounded=0;whiteSpace=wrap;html=1;fillColor=none;" parent="1" vertex="1"><mxGeometry x="640.5" y="480" width="160" height="40" as="geometry"/></mxCell><mxCell id="8wCtR02nhq7q4BEQFOrc-22" value="confirm password" style="rounded=0;whiteSpace=wrap;html=1;fillColor=none;" parent="1" vertex="1"><mxGeometry x="660" y="350" width="120" height="30" as="geometry"/></mxCell><mxCell id="8wCtR02nhq7q4BEQFOrc-28" value="user name" style="rounded=0;whiteSpace=wrap;html=1;fillColor=none;" parent="1" vertex="1"><mxGeometry x="660" y="250" width="120" height="30" as="geometry"/></mxCell><mxCell id="8wCtR02nhq7q4BEQFOrc-29" value="" style="rounded=0;whiteSpace=wrap;html=1;fillColor=none;" parent="1" vertex="1"><mxGeometry x="40" y="640" width="520" height="620" as="geometry"/></mxCell><mxCell id="8wCtR02nhq7q4BEQFOrc-30" value="Home page" style="text;html=1;align=center;verticalAlign=middle;resizable=0;points=[];autosize=1;strokeColor=none;fillColor=none;" parent="1" vertex="1"><mxGeometry x="260" y="600" width="80" height="20" as="geometry"/></mxCell><mxCell id="8wCtR02nhq7q4BEQFOrc-34" value="" style="endArrow=classic;startArrow=classic;html=1;rounded=0;entryX=0;entryY=0.42;entryDx=0;entryDy=0;entryPerimeter=0;exitX=1.003;exitY=0.558;exitDx=0;exitDy=0;exitPerimeter=0;" parent="1" source="8wCtR02nhq7q4BEQFOrc-1" target="8wCtR02nhq7q4BEQFOrc-13" edge="1"><mxGeometry width="50" height="50" relative="1" as="geometry"><mxPoint x="410" y="279" as="sourcePoint"/><mxPoint x="450" y="225" as="targetPoint"/></mxGeometry></mxCell><mxCell id="8wCtR02nhq7q4BEQFOrc-36" value="" style="endArrow=classic;html=1;rounded=0;entryX=0.384;entryY=0.003;entryDx=0;entryDy=0;entryPerimeter=0;exitX=0.528;exitY=1.006;exitDx=0;exitDy=0;exitPerimeter=0;" parent="1" source="8wCtR02nhq7q4BEQFOrc-1" target="8wCtR02nhq7q4BEQFOrc-29" edge="1"><mxGeometry width="50" height="50" relative="1" as="geometry"><mxPoint x="232" y="450" as="sourcePoint"/><mxPoint x="470" y="470" as="targetPoint"/><Array as="points"><mxPoint x="230" y="530"/></Array></mxGeometry></mxCell><mxCell id="8wCtR02nhq7q4BEQFOrc-37" value="" style="rounded=0;whiteSpace=wrap;html=1;fillColor=none;" parent="1" vertex="1"><mxGeometry x="40" y="640" width="520" height="60" as="geometry"/></mxCell><mxCell id="8wCtR02nhq7q4BEQFOrc-38" value="logout" style="ellipse;whiteSpace=wrap;html=1;fillColor=none;" parent="1" vertex="1"><mxGeometry x="510" y="660" width="20" height="20" as="geometry"/></mxCell><mxCell id="b4MsUumYhPleCbkwDeqc-7" value="" style="edgeStyle=orthogonalEdgeStyle;rounded=0;orthogonalLoop=1;jettySize=auto;html=1;entryX=0.421;entryY=0;entryDx=0;entryDy=0;entryPerimeter=0;" parent="1" source="8wCtR02nhq7q4BEQFOrc-40" target="b4MsUumYhPleCbkwDeqc-2" edge="1"><mxGeometry relative="1" as="geometry"><Array as="points"><mxPoint x="480" y="611"/><mxPoint x="950" y="611"/><mxPoint x="950" y="640"/></Array></mxGeometry></mxCell><mxCell id="8wCtR02nhq7q4BEQFOrc-40" value="profile" style="ellipse;whiteSpace=wrap;html=1;fillColor=none;" parent="1" vertex="1"><mxGeometry x="470" y="660" width="20" height="20" as="geometry"/></mxCell><mxCell id="8wCtR02nhq7q4BEQFOrc-41" value="logo" style="rounded=1;whiteSpace=wrap;html=1;fillColor=none;" parent="1" vertex="1"><mxGeometry x="60" y="655" width="75" height="30" as="geometry"/></mxCell><mxCell id="8wCtR02nhq7q4BEQFOrc-43" value="" style="rounded=0;whiteSpace=wrap;html=1;fillColor=none;" parent="1" vertex="1"><mxGeometry x="120" y="700" width="360" height="500" as="geometry"/></mxCell><mxCell id="8wCtR02nhq7q4BEQFOrc-45" value="grounded&amp;nbsp;footer" style="rounded=0;whiteSpace=wrap;html=1;fillColor=none;" parent="1" vertex="1"><mxGeometry x="40" y="1200" width="520" height="60" as="geometry"/></mxCell><mxCell id="8wCtR02nhq7q4BEQFOrc-46" value="" style="rounded=0;whiteSpace=wrap;html=1;fillColor=none;" parent="1" vertex="1"><mxGeometry x="190" y="710" width="200" height="250" as="geometry"/></mxCell><mxCell id="8wCtR02nhq7q4BEQFOrc-47" value="post" style="text;html=1;strokeColor=none;fillColor=none;align=center;verticalAlign=middle;whiteSpace=wrap;rounded=0;" parent="1" vertex="1"><mxGeometry x="135" y="700" width="60" height="30" as="geometry"/></mxCell><mxCell id="8wCtR02nhq7q4BEQFOrc-48" value="" style="rounded=0;whiteSpace=wrap;html=1;fillColor=none;" parent="1" vertex="1"><mxGeometry x="190" y="710" width="200" height="40" as="geometry"/></mxCell><mxCell id="8wCtR02nhq7q4BEQFOrc-50" value="" style="ellipse;whiteSpace=wrap;html=1;fillColor=none;" parent="1" vertex="1"><mxGeometry x="195" y="715" width="30" height="30" as="geometry"/></mxCell><mxCell id="8wCtR02nhq7q4BEQFOrc-51" value="" style="rounded=0;whiteSpace=wrap;html=1;fillColor=none;" parent="1" vertex="1"><mxGeometry x="230" y="720" width="50" height="20" as="geometry"/></mxCell><mxCell id="8wCtR02nhq7q4BEQFOrc-52" value="" style="rounded=0;whiteSpace=wrap;html=1;fillColor=none;" parent="1" vertex="1"><mxGeometry x="350" y="720" width="30" height="20" as="geometry"/></mxCell><mxCell id="8wCtR02nhq7q4BEQFOrc-55" value="image" style="rounded=0;whiteSpace=wrap;html=1;fillColor=none;" parent="1" vertex="1"><mxGeometry x="190" y="750" width="200" height="150" as="geometry"/></mxCell><mxCell id="8wCtR02nhq7q4BEQFOrc-57" value="Text" style="text;html=1;strokeColor=none;fillColor=none;align=center;verticalAlign=middle;whiteSpace=wrap;rounded=0;" parent="1" vertex="1"><mxGeometry x="260" y="910" width="60" height="30" as="geometry"/></mxCell><mxCell id="b4MsUumYhPleCbkwDeqc-1" value="" style="whiteSpace=wrap;html=1;aspect=fixed;fillColor=none;" parent="1" vertex="1"><mxGeometry x="720" y="640" width="560" height="560" as="geometry"/></mxCell><mxCell id="b4MsUumYhPleCbkwDeqc-2" value="" style="rounded=0;whiteSpace=wrap;html=1;fillColor=none;" parent="1" vertex="1"><mxGeometry x="720" y="640" width="560" height="80" as="geometry"/></mxCell><mxCell id="b4MsUumYhPleCbkwDeqc-3" value="logout" style="ellipse;whiteSpace=wrap;html=1;fillColor=none;" parent="1" vertex="1"><mxGeometry x="1240" y="670" width="20" height="20" as="geometry"/></mxCell><mxCell id="b4MsUumYhPleCbkwDeqc-4" value="profile" style="ellipse;whiteSpace=wrap;html=1;fillColor=none;" parent="1" vertex="1"><mxGeometry x="1200" y="670" width="20" height="20" as="geometry"/></mxCell><mxCell id="b4MsUumYhPleCbkwDeqc-5" value="logo" style="rounded=1;whiteSpace=wrap;html=1;fillColor=none;" parent="1" vertex="1"><mxGeometry x="740" y="665" width="75" height="30" as="geometry"/></mxCell><mxCell id="b4MsUumYhPleCbkwDeqc-6" value="Profile page" style="text;html=1;strokeColor=none;fillColor=none;align=center;verticalAlign=middle;whiteSpace=wrap;rounded=0;" parent="1" vertex="1"><mxGeometry x="961" y="595" width="89" height="25" as="geometry"/></mxCell><mxCell id="b4MsUumYhPleCbkwDeqc-10" value="" style="rounded=0;whiteSpace=wrap;html=1;fillColor=none;" parent="1" vertex="1"><mxGeometry x="720" y="1200" width="560" height="60" as="geometry"/></mxCell><mxCell id="b4MsUumYhPleCbkwDeqc-12" value="" style="rounded=0;whiteSpace=wrap;html=1;fillColor=none;" parent="1" vertex="1"><mxGeometry x="800" y="720" width="400" height="480" as="geometry"/></mxCell><mxCell id="b4MsUumYhPleCbkwDeqc-13" value="" style="ellipse;whiteSpace=wrap;html=1;fillColor=none;" parent="1" vertex="1"><mxGeometry x="886" y="740" width="75" height="80" as="geometry"/></mxCell><mxCell id="b4MsUumYhPleCbkwDeqc-16" value="username" style="rounded=0;whiteSpace=wrap;html=1;fillColor=none;" parent="1" vertex="1"><mxGeometry x="1040" y="762.5" width="120" height="35" as="geometry"/></mxCell><mxCell id="b4MsUumYhPleCbkwDeqc-18" value="" style="rounded=0;whiteSpace=wrap;html=1;fillColor=none;" parent="1" vertex="1"><mxGeometry x="841" y="840" width="319" height="360" as="geometry"/></mxCell><mxCell id="b4MsUumYhPleCbkwDeqc-19" value="" style="rounded=0;whiteSpace=wrap;html=1;fillColor=none;" parent="1" vertex="1"><mxGeometry x="880" y="880" width="60" height="60" as="geometry"/></mxCell><mxCell id="b4MsUumYhPleCbkwDeqc-22" value="" style="rounded=0;whiteSpace=wrap;html=1;fillColor=none;" parent="1" vertex="1"><mxGeometry x="1060" y="880" width="60" height="60" as="geometry"/></mxCell><mxCell id="b4MsUumYhPleCbkwDeqc-23" value="" style="rounded=0;whiteSpace=wrap;html=1;fillColor=none;" parent="1" vertex="1"><mxGeometry x="970" y="880" width="60" height="60" as="geometry"/></mxCell><mxCell id="b4MsUumYhPleCbkwDeqc-24" value="" style="rounded=0;whiteSpace=wrap;html=1;fillColor=none;" parent="1" vertex="1"><mxGeometry x="880.5" y="960" width="60" height="60" as="geometry"/></mxCell><mxCell id="b4MsUumYhPleCbkwDeqc-25" value="" style="rounded=0;whiteSpace=wrap;html=1;fillColor=none;" parent="1" vertex="1"><mxGeometry x="1060.5" y="960" width="60" height="60" as="geometry"/></mxCell><mxCell id="b4MsUumYhPleCbkwDeqc-26" value="" style="rounded=0;whiteSpace=wrap;html=1;fillColor=none;" parent="1" vertex="1"><mxGeometry x="970.5" y="960" width="60" height="60" as="geometry"/></mxCell><mxCell id="b4MsUumYhPleCbkwDeqc-28" value="" style="rounded=0;whiteSpace=wrap;html=1;fillColor=none;" parent="1" vertex="1"><mxGeometry x="880" y="1040" width="60" height="60" as="geometry"/></mxCell><mxCell id="b4MsUumYhPleCbkwDeqc-29" value="" style="rounded=0;whiteSpace=wrap;html=1;fillColor=none;" parent="1" vertex="1"><mxGeometry x="1060" y="1040" width="60" height="60" as="geometry"/></mxCell><mxCell id="b4MsUumYhPleCbkwDeqc-30" value="" style="rounded=0;whiteSpace=wrap;html=1;fillColor=none;" parent="1" vertex="1"><mxGeometry x="970" y="1040" width="60" height="60" as="geometry"/></mxCell><mxCell id="b4MsUumYhPleCbkwDeqc-31" value="" style="rounded=0;whiteSpace=wrap;html=1;fillColor=none;" parent="1" vertex="1"><mxGeometry x="880" y="1120" width="60" height="60" as="geometry"/></mxCell><mxCell id="b4MsUumYhPleCbkwDeqc-32" value="" style="rounded=0;whiteSpace=wrap;html=1;fillColor=none;" parent="1" vertex="1"><mxGeometry x="1060" y="1120" width="60" height="60" as="geometry"/></mxCell><mxCell id="b4MsUumYhPleCbkwDeqc-33" value="" style="rounded=0;whiteSpace=wrap;html=1;fillColor=none;" parent="1" vertex="1"><mxGeometry x="970" y="1120" width="60" height="60" as="geometry"/></mxCell><mxCell id="b4MsUumYhPleCbkwDeqc-58" value="" style="rounded=1;whiteSpace=wrap;html=1;fillColor=none;" parent="1" vertex="1"><mxGeometry x="70" y="1320" width="510" height="470" as="geometry"/></mxCell><mxCell id="b4MsUumYhPleCbkwDeqc-59" value="users" style="text;html=1;align=center;verticalAlign=middle;resizable=0;points=[];autosize=1;strokeColor=none;fillColor=none;" parent="1" vertex="1"><mxGeometry x="150" y="1290" width="40" height="20" as="geometry"/></mxCell><mxCell id="b4MsUumYhPleCbkwDeqc-60" value="" style="rounded=0;whiteSpace=wrap;html=1;fillColor=none;" parent="1" vertex="1"><mxGeometry x="120" y="1360" width="400" height="60" as="geometry"/></mxCell><mxCell id="b4MsUumYhPleCbkwDeqc-61" value="" style="rounded=0;whiteSpace=wrap;html=1;fillColor=none;" parent="1" vertex="1"><mxGeometry x="120" y="1680" width="400" height="60" as="geometry"/></mxCell><mxCell id="b4MsUumYhPleCbkwDeqc-62" value="" style="rounded=0;whiteSpace=wrap;html=1;fillColor=none;" parent="1" vertex="1"><mxGeometry x="120" y="1600" width="400" height="60" as="geometry"/></mxCell><mxCell id="b4MsUumYhPleCbkwDeqc-63" value="" style="rounded=0;whiteSpace=wrap;html=1;fillColor=none;" parent="1" vertex="1"><mxGeometry x="120" y="1525" width="400" height="60" as="geometry"/></mxCell><mxCell id="b4MsUumYhPleCbkwDeqc-64" value="" style="rounded=0;whiteSpace=wrap;html=1;fillColor=none;" parent="1" vertex="1"><mxGeometry x="120" y="1440" width="400" height="60" as="geometry"/></mxCell><mxCell id="b4MsUumYhPleCbkwDeqc-65" value="" style="ellipse;whiteSpace=wrap;html=1;fillColor=none;" parent="1" vertex="1"><mxGeometry x="160" y="1360" width="60" height="60" as="geometry"/></mxCell><mxCell id="b4MsUumYhPleCbkwDeqc-66" value="userName" style="text;html=1;strokeColor=none;fillColor=none;align=center;verticalAlign=middle;whiteSpace=wrap;rounded=0;" parent="1" vertex="1"><mxGeometry x="290" y="1375" width="60" height="30" as="geometry"/></mxCell><mxCell id="b4MsUumYhPleCbkwDeqc-67" value="" style="ellipse;whiteSpace=wrap;html=1;fillColor=none;" parent="1" vertex="1"><mxGeometry x="160" y="1440" width="60" height="60" as="geometry"/></mxCell><mxCell id="b4MsUumYhPleCbkwDeqc-68" value="" style="ellipse;whiteSpace=wrap;html=1;fillColor=none;" parent="1" vertex="1"><mxGeometry x="160" y="1525" width="60" height="60" as="geometry"/></mxCell><mxCell id="b4MsUumYhPleCbkwDeqc-69" value="" style="ellipse;whiteSpace=wrap;html=1;fillColor=none;" parent="1" vertex="1"><mxGeometry x="160" y="1600" width="60" height="60" as="geometry"/></mxCell><mxCell id="b4MsUumYhPleCbkwDeqc-70" value="" style="ellipse;whiteSpace=wrap;html=1;fillColor=none;" parent="1" vertex="1"><mxGeometry x="160" y="1680" width="60" height="60" as="geometry"/></mxCell><mxCell id="b4MsUumYhPleCbkwDeqc-71" value="userName" style="text;html=1;strokeColor=none;fillColor=none;align=center;verticalAlign=middle;whiteSpace=wrap;rounded=0;" parent="1" vertex="1"><mxGeometry x="295" y="1455" width="60" height="30" as="geometry"/></mxCell><mxCell id="b4MsUumYhPleCbkwDeqc-72" value="userName" style="text;html=1;strokeColor=none;fillColor=none;align=center;verticalAlign=middle;whiteSpace=wrap;rounded=0;" parent="1" vertex="1"><mxGeometry x="295" y="1540" width="60" height="30" as="geometry"/></mxCell><mxCell id="b4MsUumYhPleCbkwDeqc-73" value="userName" style="text;html=1;strokeColor=none;fillColor=none;align=center;verticalAlign=middle;whiteSpace=wrap;rounded=0;" parent="1" vertex="1"><mxGeometry x="300" y="1615" width="60" height="30" as="geometry"/></mxCell><mxCell id="b4MsUumYhPleCbkwDeqc-74" value="userName" style="text;html=1;strokeColor=none;fillColor=none;align=center;verticalAlign=middle;whiteSpace=wrap;rounded=0;" parent="1" vertex="1"><mxGeometry x="300" y="1695" width="60" height="30" as="geometry"/></mxCell></root></mxGraphModel></diagram></mxfile>